<?xml version="1.0" encoding="UTF-8"?>
<svg id="Layer_1" data-name="Layer 1" xmlns="http://www.w3.org/2000/svg" viewBox="0 0 200 200">
  <path d="M100,15C53.11,15,15,53.11,15,100s38.11,85,85,85c10.91,0,21.49-2.04,31.48-6.05,5.51,3.81,12.17,6.05,19.35,6.05,18.84,0,34.17-15.33,34.17-34.14,0-7.17-2.24-13.84-6.05-19.35,4.01-10.03,6.05-20.6,6.05-31.52,0-46.89-38.11-85-85-85ZM21.8,100c0-43.11,35.09-78.2,78.2-78.2s78.2,35.09,78.2,78.2c0,8.84-1.46,17.48-4.35,25.7-2.62-2.41-5.61-4.39-8.87-5.88,1.97-6.43,3.03-13.06,3.03-19.82,0-18.67-7.58-35.6-19.79-47.91-.03-.07-.07-.14-.14-.17-.07-.07-.14-.07-.17-.14-12.31-12.21-29.24-19.79-47.91-19.79s-35.6,7.58-47.91,19.82c-.07.03-.1.07-.17.1-.03.03-.07.1-.1.17-12.24,12.31-19.82,29.24-19.82,47.91s7.58,35.6,19.82,47.91c.03.07.07.1.1.17.03.03.1.07.17.1,12.31,12.24,29.24,19.82,47.91,19.82h0c6.77,0,13.4-1.05,19.79-2.99,1.5,3.26,3.5,6.26,5.88,8.87-8.19,2.86-16.83,4.32-25.67,4.32-43.11,0-78.2-35.09-78.2-78.2ZM116.69,150.86c0,2.65.34,5.24.92,7.72-4.62,1.39-9.38,2.24-14.21,2.48v-4.25c0-1.87-1.53-3.4-3.4-3.4s-3.4,1.53-3.4,3.4v4.22c-14.31-.78-27.3-6.49-37.33-15.47l2.96-2.96c1.33-1.33,1.33-3.47,0-4.79s-3.47-1.33-4.79,0l-2.96,2.96c-8.98-10.03-14.69-23.02-15.47-37.33h4.22c1.87,0,3.4-1.53,3.4-3.4s-1.53-3.4-3.4-3.4h-4.22c.78-14.31,6.49-27.3,15.47-37.33l2.96,2.96c.68.68,1.53.99,2.41.99s1.73-.34,2.41-.99c1.33-1.33,1.33-3.47,0-4.79l-2.96-2.96c10.03-8.98,23.02-14.69,37.33-15.47v4.22c0,1.87,1.53,3.4,3.4,3.4s3.4-1.53,3.4-3.4v-4.22c14.31.78,27.3,6.49,37.33,15.47l-2.96,2.96c-1.33,1.33-1.33,3.47,0,4.79.68.68,1.53.99,2.41.99s1.73-.34,2.41-.99l2.96-2.96c8.98,10.03,14.69,23.02,15.47,37.33h-4.22c-1.87,0-3.4,1.53-3.4,3.4s1.53,3.4,3.4,3.4h4.25c-.27,4.83-1.09,9.59-2.48,14.21-2.48-.58-5.07-.92-7.72-.92-18.87-.03-34.2,15.3-34.2,34.14ZM150.86,178.2c-15.1,0-27.34-12.27-27.34-27.34s12.27-27.34,27.34-27.34,27.34,12.24,27.34,27.34-12.27,27.34-27.34,27.34Z"/>
  <path d="M103.4,88.07v-21.49c0-1.87-1.53-3.4-3.4-3.4s-3.4,1.53-3.4,3.4v21.49c-5.2,1.5-9.08,6.26-9.08,11.93,0,2.21.61,4.25,1.63,6.02l-21.45,21.49c-1.33,1.33-1.33,3.47,0,4.79.68.68,1.53.99,2.41.99s1.73-.34,2.41-.99l21.45-21.49c1.8,1.02,3.84,1.63,6.02,1.63,6.87,0,12.48-5.61,12.48-12.48,0-5.64-3.88-10.4-9.08-11.9ZM100,105.68c-3.13,0-5.68-2.55-5.68-5.68s2.55-5.68,5.68-5.68,5.68,2.55,5.68,5.68-2.55,5.68-5.68,5.68Z"/>
  <path d="M163.04,138.49l-17.51,17.51-6.87-6.87c-1.33-1.33-3.47-1.33-4.79,0s-1.33,3.47,0,4.79l9.28,9.28c.68.68,1.53.99,2.41.99s1.73-.34,2.41-.99l19.89-19.89c1.33-1.33,1.33-3.47,0-4.79s-3.5-1.36-4.83-.03Z"/>
</svg>