<svg width="100" height="51" viewBox="0 0 100 51" fill="none" xmlns="http://www.w3.org/2000/svg">
<path d="M5.19192 50.9998C4.49703 51.004 3.80954 50.8574 3.17716 50.57C2.55167 50.2857 1.98873 49.8807 1.52075 49.3784C1.04183 48.8654 0.663057 48.2678 0.403884 47.6162C0.132038 46.9346 -0.00505261 46.207 0.000171979 45.4735C-0.00554954 44.7374 0.13154 44.0071 0.403884 43.3229C0.662471 42.6722 1.04133 42.0757 1.52075 41.5645C1.98952 41.064 2.55232 40.6602 3.17716 40.3762C3.80954 40.0888 4.49703 39.9422 5.19192 39.9464C6.01772 39.9389 6.83142 40.1447 7.55387 40.5438C8.2634 40.9335 8.87493 41.4788 9.34232 42.1387L7.48596 43.15C7.20495 42.8157 6.85821 42.5424 6.46717 42.347C6.07207 42.1471 5.63491 42.0441 5.19192 42.0464C4.77457 42.0442 4.36203 42.1352 3.98458 42.3129C3.60766 42.4902 3.27027 42.7413 2.99241 43.0511C2.70532 43.3704 2.47902 43.7393 2.32462 44.1396C2.16106 44.5646 2.07913 45.0165 2.0831 45.4717C2.07982 45.9257 2.16173 46.3762 2.32462 46.8001C2.47782 47.201 2.70425 47.57 2.99241 47.8885C3.27165 48.1969 3.60872 48.4477 3.98458 48.6268C4.36136 48.8068 4.77416 48.8992 5.19192 48.897C5.63658 48.9005 6.07545 48.7964 6.47097 48.5936C6.85963 48.3952 7.20436 48.1208 7.48469 47.7869L9.34106 48.807C8.8718 49.4641 8.26105 50.008 7.55362 50.3988C6.83198 50.8002 6.01808 51.0073 5.19192 50.9998ZM10.6627 43.1897H12.7454V50.8019H10.6627V43.1897ZM11.7192 42.3144C11.5782 42.3178 11.438 42.2927 11.307 42.2406C11.1761 42.1884 11.057 42.1103 10.9572 42.011C10.8563 41.9135 10.7767 41.7961 10.7235 41.6664C10.6702 41.5367 10.6444 41.3974 10.6477 41.2573C10.6444 41.1172 10.6702 40.9779 10.7235 40.8482C10.7767 40.7185 10.8563 40.6012 10.9572 40.5036C11.0559 40.4048 11.1736 40.3269 11.3034 40.2748C11.4331 40.2226 11.5721 40.1973 11.7119 40.2002C11.8512 40.197 11.9896 40.2223 12.1188 40.2745C12.2479 40.3267 12.365 40.4046 12.4628 40.5036C12.5627 40.6018 12.6413 40.7193 12.6939 40.8489C12.7465 40.9785 12.7718 41.1175 12.7684 41.2573C12.7717 41.3964 12.7468 41.5346 12.6953 41.6639C12.6439 41.7932 12.5669 41.9108 12.4689 42.0097C12.3719 42.1096 12.2551 42.1882 12.126 42.2407C11.9969 42.2931 11.8586 42.3182 11.7192 42.3144ZM14.4963 50.8019L14.4887 43.1897H16.5714L16.579 43.753C16.8345 43.5068 17.1359 43.3129 17.466 43.1821C17.8077 43.0447 18.1729 42.9749 18.5413 42.9766C18.8224 42.9772 19.1019 43.0183 19.3713 43.0984L18.5486 45.2222C18.3746 45.1475 18.1872 45.1086 17.9977 45.1079C17.7458 45.1053 17.498 45.1711 17.2807 45.2983C17.0676 45.4219 16.8907 45.599 16.7675 45.812C16.6404 46.033 16.5753 46.2841 16.579 46.5389V50.8019H14.4963ZM20.2312 50.8019L20.2238 43.1897H22.3065L22.3141 43.753C22.5696 43.5068 22.871 43.3129 23.2011 43.1821C23.5428 43.0447 23.908 42.9749 24.2764 42.9766C24.5575 42.9772 24.837 43.0183 25.1064 43.0984L24.2837 45.2222C24.1097 45.1475 23.9223 45.1086 23.7328 45.1079C23.4809 45.1053 23.2331 45.1711 23.0158 45.2983C22.8027 45.4219 22.6258 45.599 22.5026 45.812C22.3755 46.033 22.3104 46.2841 22.3141 46.5389V50.8019H20.2312ZM25.7095 48.0157V43.1897H27.7922V47.4372C27.7886 47.6925 27.8551 47.9439 27.9846 48.1641C28.1099 48.3767 28.2879 48.5537 28.5016 48.6778C28.7164 48.8044 28.9617 48.8702 29.2112 48.8682C29.463 48.8708 29.7109 48.805 29.9281 48.6778C30.1412 48.5542 30.3181 48.3771 30.4413 48.1641C30.5684 47.9431 30.6336 47.692 30.6298 47.4372V43.1897H32.7125L32.7201 50.8019H30.6375L30.6298 50.2234C30.3743 50.4695 30.073 50.6635 29.7428 50.7943C29.4012 50.9317 29.036 51.0015 28.6675 50.9998C28.144 51.0049 27.6294 50.8649 27.1809 50.5953C26.7387 50.3318 26.3702 49.9614 26.1094 49.5182C25.8412 49.0632 25.7029 48.5437 25.7093 48.0159L25.7095 48.0157ZM36.4248 50.9389C36.0426 50.9096 35.6666 50.8262 35.3079 50.6914C34.9613 50.563 34.6386 50.3777 34.3532 50.1432C34.077 49.9161 33.8542 49.6313 33.7004 49.3089L35.4511 48.5476C35.5222 48.6457 35.606 48.734 35.7002 48.8103C35.8224 48.9114 35.9583 48.9947 36.1039 49.0578C36.2792 49.1322 36.4683 49.1684 36.6587 49.1643C36.8115 49.1647 36.9637 49.1455 37.1115 49.1071C37.2446 49.0761 37.367 49.0104 37.4663 48.9168C37.5122 48.8703 37.5479 48.8148 37.5713 48.7539C37.5946 48.693 37.6052 48.628 37.6022 48.5628C37.6061 48.4912 37.5923 48.4198 37.562 48.3547C37.5318 48.2897 37.4859 48.2331 37.4286 48.1899C37.3028 48.0989 37.1605 48.0329 37.0097 47.9957C36.8461 47.9526 36.6889 47.9157 36.538 47.8852C36.0819 47.8063 35.6405 47.6587 35.2288 47.4476C34.8383 47.2529 34.4967 46.9732 34.229 46.6292C33.9687 46.2829 33.8331 45.8592 33.8441 45.4265C33.8323 44.9525 33.9724 44.4872 34.244 44.0981C34.5105 43.7252 34.8693 43.4276 35.2853 43.2342C35.7194 43.0301 36.194 42.9264 36.6739 42.9308C37.2414 42.926 37.8021 43.0537 38.3113 43.3037C38.8017 43.5414 39.2207 43.9037 39.5262 44.3542L37.8812 45.3362C37.8094 45.2328 37.7242 45.1392 37.6278 45.0581C37.5202 44.9668 37.4009 44.8902 37.273 44.8305C37.1392 44.767 36.9946 44.7295 36.8467 44.7201C36.6674 44.7037 36.4867 44.7152 36.311 44.7542C36.1659 44.7838 36.0332 44.8568 35.9308 44.9635C35.8332 45.0777 35.7832 45.2248 35.7912 45.3746C35.7877 45.4507 35.8066 45.5262 35.8454 45.5917C35.8842 45.6573 35.9414 45.7101 36.0099 45.7438C36.1687 45.8269 36.3392 45.8859 36.5155 45.9187C36.6869 45.9515 36.8558 45.9961 37.0211 46.052C37.4501 46.1903 37.8635 46.3727 38.2548 46.5963C38.6187 46.7988 38.9361 47.075 39.1866 47.4071C39.4249 47.7329 39.5423 48.1311 39.5186 48.5337C39.5268 49.012 39.3695 49.4784 39.0733 49.8545C38.7714 50.2362 38.3747 50.5325 37.9225 50.7141C37.4492 50.91 36.9349 50.9872 36.4248 50.9389ZM49.3207 50.9998C48.6258 51.004 47.9384 50.8574 47.306 50.57C46.6805 50.2857 46.1176 49.8808 45.6496 49.3787C45.1706 48.8657 44.7919 48.2681 44.5327 47.6165C44.2609 46.9349 44.1238 46.2073 44.129 45.4737C44.1233 44.7376 44.2604 44.0073 44.5327 43.3232C44.7913 42.6724 45.1702 42.0759 45.6496 41.5648C46.1183 41.0642 46.6811 40.6605 47.306 40.3765C47.9384 40.0891 48.6258 39.9424 49.3207 39.9467C50.1465 39.9391 50.9602 40.145 51.6827 40.5441C52.3922 40.9337 53.0038 41.479 53.4711 42.1389L51.6148 43.1502C51.3338 42.8159 50.987 42.5426 50.596 42.3473C50.2009 42.1474 49.7637 42.0443 49.3207 42.0467C48.9034 42.0444 48.4908 42.1355 48.1134 42.3131C47.7365 42.4905 47.3991 42.7415 47.1212 43.0514C46.8341 43.3711 46.6079 43.7405 46.4537 44.1413C46.2901 44.5663 46.2082 45.0183 46.2122 45.4735C46.2089 45.9274 46.2908 46.378 46.4537 46.8019C46.6069 47.2027 46.8333 47.5718 47.1215 47.8903C47.4007 48.1986 47.7378 48.4494 48.1137 48.6285C48.4904 48.8085 48.9032 48.901 49.321 48.8988C49.7656 48.9023 50.2045 48.7982 50.6 48.5954C50.9887 48.3969 51.3334 48.1226 51.6138 47.7886L53.4701 48.8088C53.0005 49.4657 52.3894 50.0093 51.6817 50.3999C50.9602 50.8007 50.1466 51.0075 49.3207 50.9998ZM57.7949 50.9998C57.1232 51.0063 56.464 50.8185 55.897 50.4593C55.326 50.099 54.8561 49.6 54.5312 49.009C54.1893 48.3933 54.0137 47.6994 54.0218 46.9955C54.0175 46.46 54.1175 45.9288 54.3161 45.4313C54.5047 44.9586 54.7796 44.5249 55.127 44.1525C55.467 43.7879 55.8761 43.4943 56.3306 43.2885C56.7902 43.0801 57.2896 42.9737 57.7944 42.9766C58.4661 42.9701 59.1253 43.1579 59.6923 43.5171C60.264 43.8782 60.734 44.3786 61.058 44.9711C61.4004 45.5908 61.5759 46.2885 61.5674 46.996C61.5715 47.5278 61.4716 48.0553 61.2732 48.5489C61.084 49.0201 60.809 49.4524 60.4622 49.8239C60.1232 50.1878 59.7155 50.4814 59.2625 50.6878C58.8018 50.897 58.301 51.0035 57.7949 50.9998ZM57.7949 48.8988C58.1044 48.9026 58.4074 48.8108 58.6626 48.6361C58.9205 48.4595 59.1284 48.2196 59.2663 47.9396C59.413 47.6467 59.488 47.3232 59.485 46.9958C59.4887 46.6608 59.4096 46.3301 59.2549 46.0327C59.1118 45.7527 58.9003 45.5131 58.6398 45.3362C58.3911 45.166 58.0962 45.0757 57.7946 45.0773C57.4871 45.0744 57.1863 45.1676 56.9345 45.3438C56.6763 45.5229 56.4672 45.7636 56.3263 46.0441C56.1766 46.3389 56.1003 46.6653 56.1038 46.9958C56.0983 47.3334 56.1774 47.667 56.3339 47.9664C56.4773 48.2421 56.689 48.4767 56.9489 48.6478C57.1996 48.8135 57.4942 48.9009 57.7949 48.8988ZM69.7314 45.9604V50.8019H67.6487V46.5392C67.6524 46.2839 67.5858 46.0325 67.4564 45.8123C67.3318 45.6003 67.1552 45.4235 66.9432 45.2985C66.7274 45.1711 66.4807 45.1052 66.23 45.1082C65.9782 45.1056 65.7303 45.1714 65.5131 45.2985C65.3 45.4221 65.123 45.5993 64.9999 45.8123C64.8728 46.0333 64.8076 46.2844 64.8113 46.5392V50.8021H62.7286L62.721 43.1899H64.8037L64.8113 43.7532C65.0669 43.5071 65.3682 43.3132 65.6983 43.1824C66.04 43.0449 66.4052 42.9751 66.7736 42.9768C67.2985 42.9707 67.8146 43.1108 68.264 43.3813C68.7046 43.6456 69.0717 44.0159 69.3317 44.4584C69.6002 44.9132 69.7388 45.4326 69.7327 45.9604H69.7314ZM78.2509 45.9604V50.8019H76.1682V46.5392C76.1726 46.284 76.1069 46.0325 75.9782 45.812C75.8536 45.6001 75.677 45.4233 75.465 45.2983C75.2492 45.1708 75.0025 45.105 74.7518 45.1079C74.5 45.1053 74.2521 45.1711 74.0349 45.2983C73.8218 45.4219 73.6448 45.599 73.5217 45.812C73.3945 46.033 73.3294 46.2841 73.3331 46.5389V50.8019H71.2505L71.2429 43.1897H73.3255L73.3331 43.753C73.5887 43.5068 73.89 43.3129 74.2201 43.1821C74.5618 43.0447 74.927 42.9749 75.2954 42.9766C75.8203 42.9704 76.3364 43.1105 76.7859 43.3811C77.2264 43.6454 77.5935 44.0157 77.8535 44.4581C78.1211 44.9133 78.2589 45.4328 78.2519 45.9604H78.2509ZM82.9295 50.9998C82.2579 51.0062 81.5988 50.8185 81.0318 50.4593C80.4601 50.0982 79.9901 49.5978 79.6661 49.0053C79.3244 48.388 79.1489 47.693 79.1567 46.9879C79.1528 46.4549 79.2527 45.9263 79.4509 45.4313C79.6395 44.9586 79.9145 44.5249 80.2619 44.1525C80.6018 43.7879 81.0109 43.4943 81.4654 43.2885C81.925 43.0801 82.4244 42.9737 82.9292 42.9766C83.4999 42.9699 84.0635 43.1031 84.5704 43.3646C85.0631 43.621 85.4934 43.9822 85.8307 44.4227C86.1771 44.8728 86.4286 45.3881 86.5702 45.9377C86.7191 46.5121 86.7436 47.1115 86.642 47.6961H81.4064C81.4696 47.9147 81.5732 48.1196 81.7117 48.3004C81.8491 48.4795 82.0243 48.6263 82.2249 48.7302C82.4437 48.8404 82.6854 48.8977 82.9305 48.8975C83.1842 48.9045 83.4349 48.8413 83.6548 48.7148C83.8775 48.5867 84.0704 48.4128 84.2207 48.2048L86.3495 48.6996C86.0503 49.3653 85.5757 49.9376 84.9762 50.3554C84.3799 50.7808 83.6636 51.0065 82.9305 50.9998H82.9295ZM81.3298 46.1432H84.537C84.4741 45.8947 84.3612 45.6616 84.205 45.4581C84.0545 45.2594 83.8628 45.0955 83.6429 44.9777C83.4235 44.8609 83.1784 44.8007 82.9297 44.8027C82.6836 44.8014 82.441 44.8615 82.2242 44.9777C82.006 45.0942 81.8158 45.2566 81.6666 45.4535C81.5106 45.6593 81.3965 45.8936 81.3308 46.1432H81.3298ZM92.3771 48.3964L94.2484 49.4166C93.9038 49.8913 93.458 50.2839 92.943 50.566C92.419 50.8554 91.8289 51.0049 91.23 50.9998C90.5583 51.0063 89.8991 50.8185 89.3321 50.4593C88.7612 50.099 88.2912 49.6 87.9664 49.009C87.6244 48.3933 87.4488 47.6994 87.457 46.9955C87.4527 46.46 87.5526 45.9288 87.7512 45.4313C87.9398 44.9586 88.2148 44.5249 88.5622 44.1525C88.9021 43.7879 89.3112 43.4943 89.7657 43.2885C90.2253 43.0801 90.7247 42.9737 91.2295 42.9766C91.8284 42.9715 92.4185 43.121 92.9424 43.4104C93.4604 43.695 93.9068 44.0933 94.2479 44.5752L92.3781 45.5951C92.2286 45.4324 92.0475 45.3016 91.8459 45.2108C91.6527 45.1232 91.443 45.0777 91.2308 45.0776C90.9219 45.0736 90.6196 45.1669 90.3669 45.344C90.11 45.5249 89.9025 45.767 89.7632 46.0482C89.6144 46.3418 89.5381 46.6667 89.5407 46.9958C89.5386 47.3213 89.6163 47.6425 89.767 47.9312C89.9095 48.2106 90.1183 48.4511 90.3752 48.6316C90.6255 48.808 90.9251 48.9013 91.2315 48.8981C91.4455 48.8986 91.6568 48.8518 91.8504 48.761C92.0458 48.6703 92.2242 48.547 92.3781 48.3964H92.3771ZM99.7128 45.2917H98.3544V50.8034H96.2717V45.2917H95.2304V43.1907H96.2717V40.8005H98.3544V43.1907H99.7128V45.2917Z" fill="white"/>
<path d="M47.5707 30.332C44.239 30.3373 40.9986 29.2455 38.3522 27.226L41.5961 22.7696L42.5989 21.499L43.9007 19.539C43.9007 19.539 41.9164 18.5558 41.7327 15.408C41.549 12.2603 43.5751 11.0543 43.5751 11.0543L36.9406 4.32482C38.3214 2.97595 39.9469 1.90161 41.7303 1.15915C42.6394 0.781892 43.5832 0.493953 44.5483 0.299499C46.5568 -0.102816 48.6258 -0.0997682 50.6332 0.308387C52.5775 0.705482 54.4244 1.48073 56.0684 2.58989C58.5122 4.23605 60.4253 6.5537 61.5759 9.26226C61.9648 10.1796 62.2614 11.1331 62.4614 12.1089C62.8739 14.1256 62.8739 16.2047 62.4614 18.2215C61.862 21.1266 60.4213 23.7924 58.3178 25.8885C56.932 27.2722 55.2913 28.3758 53.486 29.1387C52.5666 29.5266 51.6109 29.8226 50.6329 30.0223C49.6252 30.2279 48.5993 30.3316 47.5707 30.332Z" fill="#056E40"/>
<path d="M47.9111 24.8719C45.987 24.872 44.1061 24.3029 42.5063 23.2366C40.9064 22.1702 39.6595 20.6545 38.9231 18.8811C38.1868 17.1078 37.9941 15.1564 38.3695 13.2737C38.7449 11.3911 39.6714 9.66183 41.032 8.30457C42.6845 6.65608 44.8766 5.65608 47.2074 5.48742C49.5383 5.31876 51.8521 5.99272 53.7257 7.38605L50.9687 10.9878C50.1751 10.4094 49.2331 10.0677 48.2524 10.0025C47.2718 9.93735 46.2927 10.1514 45.4292 10.6198C44.5657 11.0882 43.8534 11.7917 43.3751 12.6482C42.8968 13.5048 42.6722 14.4793 42.7275 15.4583C42.7827 16.4373 43.1156 17.3805 43.6873 18.1781C44.259 18.9757 45.046 19.5948 45.9568 19.9635C46.8675 20.3322 47.8645 20.4353 48.8316 20.2606C49.7988 20.086 50.6963 19.641 51.4198 18.9772L54.5702 22.2412C52.7686 23.9343 50.3861 24.8755 47.9111 24.8719Z" fill="white"/>
</svg>
