<svg width="68" height="68" viewBox="0 0 68 68" fill="none" xmlns="http://www.w3.org/2000/svg">
<path d="M34 32H46.0833V36.8333H34V32ZM36.4167 41.6667H46.0833V46.5H36.4167V41.6667Z" fill="black"/>
<path d="M50.5 20.5H11.8333C9.175 20.5 7 22.675 7 25.3333V54.3333C7 56.9917 9.175 59.1667 11.8333 59.1667H50.5C53.1583 59.1667 55.3333 56.9917 55.3333 54.3333V25.3333C55.3333 22.675 53.1583 20.5 50.5 20.5ZM11.8333 54.3333V25.3333H50.5V54.3333H11.8333Z" fill="black"/>
<path d="M23.25 31C21.9681 31 20.7387 31.5092 19.8323 32.4157C18.9259 33.3221 18.4167 34.5515 18.4167 35.8333C18.4167 37.1152 18.9259 38.3446 19.8323 39.251C20.7387 40.1574 21.9681 40.6667 23.25 40.6667C24.5319 40.6667 25.7613 40.1574 26.6677 39.251C27.5741 38.3446 28.0833 37.1152 28.0833 35.8333C28.0833 34.5515 27.5741 33.3221 26.6677 32.4157C25.7613 31.5092 24.5319 31 23.25 31ZM23.25 43.0833C19.2383 43.0833 16 46.3217 16 50.3333H30.5C30.5 46.3217 27.2617 43.0833 23.25 43.0833Z" fill="black"/>
<path d="M55.878 12.9971C55.7446 12.8637 55.5637 12.7888 55.3751 12.7888C55.1864 12.7888 55.0055 12.8637 54.8721 12.9971C54.7388 13.1305 54.6638 13.3114 54.6638 13.5C54.6638 13.6886 54.7388 13.8696 54.8721 14.0029L56.9971 16.1279C57.0633 16.1936 57.1418 16.2455 57.2281 16.2808C57.3144 16.316 57.4068 16.3339 57.5001 16.3333C57.597 16.3303 57.6923 16.3073 57.7801 16.2659C57.8678 16.2245 57.9461 16.1654 58.0101 16.0925L62.9684 10.4258C63.0829 10.2837 63.1381 10.1029 63.1225 9.92101C63.1069 9.73916 63.0217 9.57035 62.8847 9.44977C62.7477 9.3292 62.5694 9.26616 62.387 9.27382C62.2047 9.28147 62.0323 9.35922 61.9059 9.49085L57.5001 14.5908L55.878 12.9971Z" fill="black"/>
<path d="M63.875 12.7917C63.6872 12.7917 63.507 12.8663 63.3742 12.9991C63.2413 13.132 63.1667 13.3121 63.1667 13.5C63.1667 15.0029 62.5697 16.4442 61.507 17.5069C60.4443 18.5696 59.0029 19.1667 57.5 19.1667C56.3809 19.1661 55.287 18.8343 54.3563 18.2129C53.4255 17.5915 52.6996 16.7085 52.27 15.6751C51.8405 14.6417 51.7265 13.5043 51.9425 12.4062C52.1585 11.3082 52.6948 10.2987 53.4838 9.50499C54.0084 8.9733 54.6339 8.5516 55.3235 8.26457C56.0131 7.97753 56.7531 7.83092 57.5 7.83332C57.953 7.83622 58.4042 7.88847 58.8459 7.98916C58.9383 8.01774 59.0356 8.02709 59.1317 8.01664C59.2279 8.00618 59.3209 7.97614 59.405 7.92837C59.4891 7.88059 59.5626 7.81609 59.6208 7.73885C59.679 7.6616 59.7208 7.57325 59.7436 7.47924C59.7664 7.38522 59.7696 7.28754 59.7532 7.19221C59.7368 7.09688 59.701 7.00593 59.6481 6.92495C59.5952 6.84398 59.5263 6.7747 59.4455 6.72139C59.3648 6.66808 59.274 6.63187 59.1788 6.61499C58.6286 6.48529 58.0653 6.41875 57.5 6.41666C56.1006 6.42393 54.7347 6.84557 53.5747 7.62837C52.4146 8.41117 51.5125 9.52005 50.982 10.8151C50.4516 12.1101 50.3167 13.5332 50.5942 14.9049C50.8718 16.2765 51.5495 17.5352 52.5417 18.5221C53.8569 19.8378 55.6397 20.579 57.5 20.5833C59.3786 20.5833 61.1803 19.837 62.5087 18.5087C63.8371 17.1803 64.5834 15.3786 64.5834 13.5C64.5834 13.3121 64.5087 13.132 64.3759 12.9991C64.2431 12.8663 64.0629 12.7917 63.875 12.7917Z" fill="black"/>
</svg>
