<svg width="40" height="41" viewBox="0 0 40 41" fill="none" xmlns="http://www.w3.org/2000/svg">
<path d="M23.6202 13.9535H20.9787V14.5892H23.6202V13.9535Z" fill="black"/>
<path d="M20.9787 15.5428H23.6202V16.1785H20.9787V15.5428Z" fill="black"/>
<path d="M23.6202 20.6283H20.9787V21.264H23.6202V20.6283Z" fill="black"/>
<path d="M20.9787 21.5818H23.6202V22.2175H20.9787V21.5818Z" fill="black"/>
<path d="M23.6202 19.0391H20.9787V19.6748H23.6202V19.0391Z" fill="black"/>
<path d="M20.9787 14.9071H23.6202V15.2249H20.9787V14.9071Z" fill="black"/>
<path d="M23.6202 16.4963H20.9787V16.8141H23.6202V16.4963Z" fill="black"/>
<path d="M20.9787 17.132H23.6202V17.4498H20.9787V17.132Z" fill="black"/>
<path d="M23.6202 17.7677H20.9787V18.0855H23.6202V17.7677Z" fill="black"/>
<path d="M20.9787 18.4034H23.6202V18.7212H20.9787V18.4034Z" fill="black"/>
<path d="M23.6202 19.9926H20.9787V20.3104H23.6202V19.9926Z" fill="black"/>
<path d="M20.9787 22.5354H23.6202V22.8532H20.9787V22.5354Z" fill="black"/>
<path d="M33.0301 20.15L33.3749 20.3417L32.7776 21.3375L32.4328 21.1459L33.0301 20.15Z" fill="black"/>
<path d="M33.7197 20.5333L33.8375 20.5988C34.1533 20.7743 34.2616 21.1631 34.0792 21.4671L32.1514 24.6814C31.9691 24.9854 31.5652 25.0896 31.2494 24.914L31.1316 24.8486L33.7197 20.5333Z" fill="black"/>
<path d="M32.3404 19.7667L32.6853 19.9584L32.088 20.9542L31.7432 20.7626L32.3404 19.7667Z" fill="black"/>
<path d="M31.6508 19.3834L31.9956 19.5751L31.3983 20.5709L31.0535 20.3793L31.6508 19.3834Z" fill="black"/>
<path d="M28.7178 23.5071L31.3059 19.1918L31.1882 19.1263C30.8723 18.9508 30.4684 19.055 30.2861 19.359L28.3583 22.5732C28.176 22.8773 28.2842 23.2661 28.6 23.4416L28.7178 23.5071Z" fill="black"/>
<path d="M29.4075 23.8903L29.0626 23.6987L29.6599 22.7029L30.0047 22.8945L29.4075 23.8903Z" fill="black"/>
<path d="M30.0971 24.2736L29.7523 24.082L30.3496 23.0862L30.6944 23.2778L30.0971 24.2736Z" fill="black"/>
<path d="M30.7868 24.6569L30.442 24.4653L31.0392 23.4695L31.384 23.6611L30.7868 24.6569Z" fill="black"/>
<path d="M30.8544 20.7112L29.859 22.3709L31.5831 23.3292L32.5786 21.6695L30.8544 20.7112Z" fill="black"/>
<path fill-rule="evenodd" clip-rule="evenodd" d="M13.3845 14.2714V19.753L10.7572 15.3724C10.3925 14.7643 9.58476 14.556 8.95306 14.9071L0.660588 19.5158C0.0288902 19.8669 -0.187545 20.6445 0.177165 21.2526L7.44121 33.3641C7.80592 33.9722 8.61367 34.1805 9.24536 33.8295L16.985 29.528H22.015L29.7546 33.8295C30.3863 34.1805 31.1941 33.9722 31.5588 33.3641L38.8228 21.2526C39.1875 20.6445 38.9711 19.8669 38.3394 19.5158L30.0469 14.9071C29.4152 14.556 28.6075 14.7643 28.2428 15.3724L25.6013 19.7766V14.2714C25.6013 13.5692 25.01 13 24.2806 13H14.7052C13.9758 13 13.3845 13.5692 13.3845 14.2714ZM20.9787 23.4889V23.171H23.5655L24.9409 20.8777V14.2714C24.9409 13.9203 24.6453 13.6357 24.2806 13.6357H14.7052C14.3405 13.6357 14.0449 13.9203 14.0449 14.2714V20.854L18.0213 27.484C18.2961 27.9422 18.2409 28.4966 17.9268 28.8923H21.0732C20.7591 28.4966 20.7039 27.9422 20.9787 27.484L21.2779 26.9852H20.9787V26.3495H21.6591L21.8498 26.0317H20.9787V25.7138H22.0404L22.231 25.396H20.9787V25.0781H22.4217L22.6123 24.7603H20.9787V24.4424H22.8029L22.9936 24.1246H20.9787V23.8067H23.1842L23.3748 23.4889H20.9787ZM38.0092 20.0664L29.7168 15.4576C29.4009 15.2821 28.997 15.3862 28.8147 15.6903L21.5506 27.8018C21.3683 28.1059 21.4765 28.4946 21.7923 28.6702L30.0848 33.2789C30.4007 33.4545 30.8045 33.3503 30.9869 33.0463L38.2509 20.9347C38.4333 20.6307 38.3251 20.2419 38.0092 20.0664ZM8.71135 15.7754L9.28325 15.4576C9.5991 15.2821 10.003 15.3862 10.1853 15.6903L17.4494 27.8018C17.6317 28.1059 17.5235 28.4946 17.2077 28.6702L16.6358 28.988L8.71135 15.7754ZM14.3482 30.2594L8.91518 33.2789C8.59933 33.4545 8.19546 33.3503 8.0131 33.0463L0.74906 20.9347C0.566705 20.6307 0.674923 20.2419 0.990772 20.0664L6.42377 17.0468L14.3482 30.2594Z" fill="black"/>
</svg>
